<?xml version="1.0" standalone="no"?>
<!DOCTYPE svg PUBLIC "-//W3C//DTD SVG 20010904//EN"
 "http://www.w3.org/TR/2001/REC-SVG-20010904/DTD/svg10.dtd">
<svg version="1.0" xmlns="http://www.w3.org/2000/svg"
 width="600.000000pt" height="350.000000pt" viewBox="0 0 600.000000 360.000000"
 preserveAspectRatio="xMidYMid meet">

<g transform="translate(0.000000,360.000000) scale(0.100000,-0.100000)"
fill="#000000" stroke="none">
<path d="M2177 2098 c102 -145 193 -272 202 -283 9 -11 -27 21 -79 71 l-95 91
-145 12 c-80 7 -162 16 -183 20 l-38 6 86 103 86 102 -21 30 -21 30 -82 -102
c-45 -56 -93 -115 -107 -131 l-25 -29 -104 12 c-57 6 -104 10 -106 8 -1 -2
137 -182 307 -401 l310 -397 811 2 811 3 308 435 c169 239 306 435 305 437 -2
1 -119 -20 -261 -47 l-257 -50 -343 0 -344 0 -107 143 c-60 78 -109 143 -110
145 -3 3 -889 52 -947 52 l-37 0 186 -262z"/>
<path d="M4376 2026 l-26 -34 260 -323 260 -323 0 -53 0 -53 90 0 c50 0 90 2
90 5 0 2 -53 71 -118 152 -65 81 -209 264 -320 406 -112 141 -205 257 -206
257 -2 0 -15 -15 -30 -34z"/>
<path d="M1420 1849 c-52 -67 -179 -228 -282 -358 -103 -130 -188 -239 -188
-242 0 -3 10 -5 23 -3 12 1 48 3 80 3 l57 1 0 46 c0 42 6 54 54 113 287 354
396 491 396 498 0 4 -10 20 -23 36 l-22 28 -95 -122z"/>
<path d="M1496 1538 c-14 -13 -28 -35 -31 -49 -6 -22 -3 -27 17 -30 13 -3 33
-3 46 -1 19 3 22 9 22 53 0 56 -13 63 -54 27z"/>
<path d="M1570 1511 c0 -54 8 -60 63 -53 18 3 27 10 27 22 0 26 -48 80 -71 80
-16 0 -19 -7 -19 -49z"/>
<path d="M4296 1538 c-14 -13 -28 -35 -32 -50 -6 -27 -5 -28 40 -28 l46 0 0
50 c0 57 -13 64 -54 28z"/>
<path d="M4372 1509 l3 -52 43 -1 c37 -1 42 2 42 21 0 29 -47 83 -71 83 -18 0
-20 -6 -17 -51z"/>
<path d="M1503 1433 c-43 -4 -43 -4 -43 -44 l0 -39 45 0 45 0 0 45 c0 25 -1
44 -2 43 -2 -1 -22 -3 -45 -5z"/>
<path d="M1613 1433 c-43 -4 -43 -4 -43 -44 l0 -39 45 0 45 0 0 45 c0 25 -1
44 -2 43 -2 -1 -22 -3 -45 -5z"/>
<path d="M4303 1433 c-43 -4 -43 -4 -43 -44 l0 -39 45 0 45 0 0 45 c0 25 -1
44 -2 43 -2 -1 -22 -3 -45 -5z"/>
<path d="M4413 1433 c-43 -4 -43 -4 -43 -44 l0 -39 45 0 45 0 0 45 c0 25 -1
44 -2 43 -2 -1 -22 -3 -45 -5z"/>
<path d="M1460 1285 l0 -45 45 0 45 0 0 45 0 45 -45 0 -45 0 0 -45z"/>
<path d="M1570 1285 l0 -45 45 0 45 0 0 45 0 45 -45 0 -45 0 0 -45z"/>
<path d="M4260 1285 l0 -45 45 0 45 0 0 45 0 45 -45 0 -45 0 0 -45z"/>
<path d="M4370 1285 l0 -45 45 0 45 0 0 45 0 45 -45 0 -45 0 0 -45z"/>
<path d="M1766 1055 c-3 -9 -6 -52 -6 -96 l0 -79 -105 0 -105 0 0 90 c0 83 -2
90 -20 90 -29 0 -40 -30 -40 -107 0 -39 -5 -74 -12 -81 -8 -8 -8 -15 2 -27 9
-11 10 -33 5 -80 -9 -88 0 -127 28 -123 21 3 22 9 25 96 l3 92 109 0 109 0 3
-87 c3 -82 5 -88 25 -91 14 -2 23 3 26 15 2 10 4 104 3 208 -1 186 -1 190 -22
193 -13 2 -24 -4 -28 -13z"/>
<path d="M3466 1055 c-3 -9 -6 -52 -6 -96 l0 -79 -106 0 -105 0 1 73 c2 106 2
107 -20 107 -29 0 -40 -30 -40 -107 0 -39 -5 -74 -12 -81 -8 -8 -8 -15 2 -27
9 -11 10 -33 5 -80 -9 -88 0 -127 28 -123 20 3 22 10 27 93 l5 90 107 3 107 3
3 -88 c3 -82 5 -88 25 -91 14 -2 23 3 26 15 2 10 4 104 3 208 -1 186 -1 190
-22 193 -13 2 -24 -4 -28 -13z"/>
<path d="M1955 990 c-84 -34 -108 -181 -42 -248 52 -52 162 -36 211 31 27 37
28 130 1 170 -32 50 -111 72 -170 47z m90 -36 c24 -10 45 -58 45 -104 0 -77
-89 -131 -134 -81 -20 22 -32 88 -22 126 13 52 62 78 111 59z"/>
<path d="M2214 988 c-14 -23 -17 -193 -4 -232 16 -49 49 -70 101 -63 22 3 49
13 58 21 17 15 19 15 33 -5 10 -16 20 -20 32 -16 15 6 17 14 10 50 -4 23 -8
84 -8 136 -1 72 -4 95 -15 99 -26 9 -41 -29 -41 -105 0 -86 -18 -130 -56 -139
-19 -5 -32 -1 -47 15 -22 22 -23 40 -14 216 2 24 -2 31 -20 33 -11 2 -25 -3
-29 -10z"/>
<path d="M2565 988 c-33 -17 -45 -40 -45 -80 0 -32 7 -45 46 -82 33 -32 45
-50 42 -68 -4 -32 -49 -32 -63 0 -5 12 -17 22 -27 22 -42 0 -33 -61 12 -80 40
-17 100 -6 123 21 9 12 17 36 17 54 0 28 -8 40 -45 71 -37 30 -45 42 -45 70 0
44 32 55 65 24 24 -23 55 -22 55 2 -1 46 -84 75 -135 46z"/>
<path d="M2801 978 c-47 -32 -71 -81 -71 -145 0 -90 37 -133 112 -133 44 0
103 32 103 56 0 27 -37 29 -60 4 -25 -28 -59 -25 -84 6 -38 49 -29 60 49 67
38 3 82 12 97 19 24 12 28 20 27 52 -3 81 -102 123 -173 74z m101 -35 c10 -9
18 -26 18 -38 0 -18 -7 -24 -37 -29 -98 -16 -118 1 -64 55 33 33 56 36 83 12z"/>
<path d="M3651 978 c-47 -32 -71 -81 -71 -145 0 -90 37 -133 112 -133 44 0
103 32 103 56 0 27 -37 29 -60 4 -25 -28 -59 -25 -84 6 -38 49 -29 60 49 67
93 8 124 23 128 64 5 48 -40 94 -98 100 -36 4 -52 0 -79 -19z m101 -35 c10 -9
18 -26 18 -38 0 -18 -7 -24 -37 -29 -98 -16 -118 1 -64 55 33 33 56 36 83 12z"/>
<path d="M4155 990 c-82 -33 -108 -178 -44 -246 67 -71 215 -21 234 78 11 57
-14 128 -54 155 -35 24 -97 30 -136 13z m90 -36 c24 -10 45 -58 45 -104 0 -33
-6 -48 -29 -71 -70 -70 -148 -6 -127 106 11 58 59 88 111 69z"/>
<path d="M4451 978 c-47 -32 -71 -81 -71 -145 0 -90 37 -133 112 -133 44 0
103 32 103 56 0 27 -37 29 -60 4 -25 -28 -59 -25 -84 6 -38 49 -29 60 49 67
93 8 124 23 128 64 5 48 -40 94 -98 100 -36 4 -52 0 -79 -19z m101 -35 c10 -9
18 -26 18 -38 0 -18 -7 -24 -37 -29 -98 -16 -118 1 -64 55 33 33 56 36 83 12z"/>
<path d="M4725 988 c-33 -17 -45 -40 -45 -80 0 -32 7 -45 46 -82 33 -32 45
-50 42 -68 -4 -32 -49 -32 -63 0 -5 12 -17 22 -27 22 -42 0 -33 -61 12 -80 40
-17 100 -6 123 21 9 12 17 36 17 54 0 28 -8 40 -45 71 -37 30 -45 42 -45 70 0
44 32 55 65 24 24 -23 55 -22 55 2 -1 46 -84 75 -135 46z"/>
<path d="M3864 966 c-3 -8 2 -29 12 -48 16 -31 22 -120 12 -183 -2 -14 3 -21
18 -23 29 -4 44 35 44 112 0 48 5 70 19 87 17 21 22 22 40 12 27 -17 38 -16
45 2 14 37 -59 60 -101 30 -18 -13 -22 -12 -38 5 -21 23 -43 26 -51 6z"/>
</g>
</svg>
